<?xml version="1.0" encoding="utf-8" ?>
<svg baseProfile="full" height="100%" version="1.1" viewBox="0,0,1000,120" width="100%" xmlns="http://www.w3.org/2000/svg" xmlns:ev="http://www.w3.org/2001/xml-events" xmlns:xlink="http://www.w3.org/1999/xlink"><defs /><rect fill="white" height="120" width="1000" x="0" y="0" /><path d="M0,0 M482.5106201171875,45.38965606689453 L482.5299072265625,45.39144515991211 L482.5914306640625,45.41313934326172 L482.70733642578125,45.4602165222168 L482.8638000488281,45.52661895751953 L483.0198669433594,45.568912506103516 L483.14056396484375,45.59384536743164 L483.2071838378906,45.592445373535156 L483.2276611328125,45.57259750366211 L483.22955322265625,45.55095672607422 L483.23431396484375,45.553585052490234 L483.2495422363281,45.58256149291992 L483.2649230957031,45.623046875 L483.2746887207031,45.665462493896484 L483.2692565917969,45.67448425292969 L483.25848388671875,45.6473388671875 L483.25323486328125,45.619319915771484 L483.2609558105469,45.60521697998047 L483.2776184082031,45.616920471191406 L483.29876708984375,45.649593353271484 L483.31549072265625,45.67776870727539 L483.3288879394531,45.69670104980469 L483.33984375,45.70848846435547 L483.3482971191406,45.71818542480469 L483.3418273925781,45.742088317871094 L483.3216247558594,45.768375396728516 L483.2939147949219,45.80230712890625 L483.273681640625,45.84708023071289 L483.27423095703125,45.88874053955078 L483.302978515625,45.937931060791016 L483.34234619140625,45.98528289794922 L483.38555908203125,46.00944137573242 L483.41436767578125,46.024253845214844 L483.42449951171875,46.03728485107422 L483.4134216308594,46.04668045043945 L483.396484375,46.056739807128906 L483.3800354003906,46.057342529296875 L483.3771667480469,46.04653549194336 L483.38531494140625,46.05430221557617 L483.4079284667969,46.08885955810547 L483.43194580078125,46.14738845825195 L483.4605712890625,46.20500946044922 L483.4850769042969,46.24354934692383 L483.50091552734375,46.2578239440918 L483.5056457519531,46.26108932495117 L483.5025329589844,46.25493240356445 L483.49017333984375,46.24895477294922 L483.4800109863281,46.240264892578125 L483.4771728515625,46.23025131225586 L483.4883117675781,46.23092269897461 L483.5067138671875,46.23958969116211 L483.5238037109375,46.24840545654297 M515.1364135742188,45.77398681640625 L515.3511962890625,45.59379577636719 L515.7417602539062,45.34258270263672 L516.27392578125,45.10661315917969 L516.854736328125,45.0 L517.4108276367188,45.04762268066406 L517.8948974609375,45.228965759277344 L518.2618408203125,45.45646286010742 L518.4918823242188,45.66946029663086 L518.5887451171875,45.83060836791992 L518.5899047851562,45.92902374267578 L518.5474243164062,45.976219177246094 L518.5007934570312,46.0229377746582 L518.4636840820312,46.05047607421875 L518.4429931640625,46.07155227661133 L518.4381713867188,46.08514404296875 L518.4437866210938,46.083866119384766 L518.4663696289062,46.06920623779297 L518.4976196289062,46.05813217163086 L518.53515625,46.02289962768555 L518.5838623046875,45.978668212890625 L518.6387939453125,45.94405746459961 L518.6739501953125,45.93082809448242 L518.655029296875,45.97030258178711 L518.4381103515625,46.145111083984375 L518.1278686523438,46.366943359375 L517.8322143554688,46.56696319580078 " fill="none" stroke="black" stroke-linecap="round" stroke-width="1.928903076193703" /></svg>